<svg xmlns="http://www.w3.org/2000/svg" xmlns:xlink="http://www.w3.org/1999/xlink" width="840" height="277.1"><rect width="840" height="277.1" rx="5" ry="5" class="a"></rect><svg y="0%" x="0%"><circle cx="20" cy="20" r="6" class="b"></circle><circle cx="40" cy="20" r="6" class="c"></circle><circle cx="60" cy="20" r="6" class="d"></circle></svg><svg height="217.10000000000002" viewBox="0 0 80 21.71" width="800" x="15" xmlns="http://www.w3.org/2000/svg" xmlns:xlink="http://www.w3.org/1999/xlink" y="50"><style>.a{fill:rgb(40,45,53)}.b{fill:#ff5f58}.c{fill:#ffbd2e}.d{fill:#18c132}.e{font-family:'Fira Code',Monaco,Consolas,Menlo,'Bitstream Vera Sans Mono','Powerline Symbols',monospace}.f{fill:rgb(102,194,205);white-space:pre}.g{fill:rgb(185,192,203);font-weight:bold;white-space:pre}.h{fill:rgb(185,192,203);white-space:pre}.i{fill:transparent}.k{animation-duration:11.4540708065033s;animation-iteration-count:infinite;animation-name:j;animation-timing-function:steps(1,end)}@keyframes j{0%{transform:translateX(-0px)}11.8%{transform:translateX(-80px)}11.8%{transform:translateX(-160px)}20.7%{transform:translateX(-240px)}29.5%{transform:translateX(-320px)}38.3%{transform:translateX(-400px)}47.1%{transform:translateX(-480px)}55.9%{transform:translateX(-560px)}64.7%{transform:translateX(-640px)}100%{transform:translateX(-720px)}}</style><g font-family="&#x27;Fira Code&#x27;,Monaco,Consolas,Menlo,&#x27;Bitstream Vera Sans Mono&#x27;,&#x27;Powerline Symbols&#x27;,monospace" font-size="1.67" class="e"><defs><symbol id="1"><text x="0" y="1.67" class="f">──</text><text x="3.006" y="1.67" class="g">Secret,</text><text x="11.021999999999998" y="1.67" class="g">by</text><text x="14.027999999999999" y="1.67" class="g">The</text><text x="18.035999999999998" y="1.67" class="g">Pierces</text><text x="26.052" y="1.67" class="f">──────────────────────────────────────────────────────</text></symbol><symbol id="2"><text x="0" y="1.67" class="h">→</text><text x="2.004" y="1.67" class="h">Got</text><text x="6.012" y="1.67" class="h">a</text><text x="8.016" y="1.67" class="h">secret,</text><text x="16.032" y="1.67" class="h">can</text><text x="20.04" y="1.67" class="h">you</text><text x="24.048" y="1.67" class="h">keep</text><text x="29.058" y="1.67" class="h">it?</text></symbol><symbol id="3"><text x="0" y="1.67" class="h">→</text><text x="2.004" y="1.67" class="h">Swear</text><text x="8.016" y="1.67" class="h">this</text><text x="13.026" y="1.67" class="h">one</text><text x="17.034" y="1.67" class="h">you&#x27;ll</text><text x="24.048" y="1.67" class="h">save</text></symbol><symbol id="4"><text x="0" y="1.67" class="h">→</text><text x="2.004" y="1.67" class="h">Better</text><text x="9.017999999999999" y="1.67" class="h">lock</text><text x="14.027999999999999" y="1.67" class="h">it,</text><text x="18.035999999999998" y="1.67" class="h">in</text><text x="21.041999999999998" y="1.67" class="h">your</text><text x="26.052" y="1.67" class="h">pocket</text></symbol><symbol id="5"><text x="0" y="1.67" class="h">→</text><text x="2.004" y="1.67" class="h">Taking</text><text x="9.017999999999999" y="1.67" class="h">this</text><text x="14.027999999999999" y="1.67" class="h">one</text><text x="18.035999999999998" y="1.67" class="h">to</text><text x="21.041999999999998" y="1.67" class="h">the</text><text x="25.05" y="1.67" class="h">grave</text></symbol><symbol id="6"><text x="0" y="1.67" class="h">→</text><text x="2.004" y="1.67" class="h">If</text><text x="5.01" y="1.67" class="h">I</text><text x="7.013999999999999" y="1.67" class="h">show</text><text x="12.024" y="1.67" class="h">you</text><text x="16.032" y="1.67" class="h">then</text><text x="21.041999999999998" y="1.67" class="h">I</text><text x="23.045999999999996" y="1.67" class="h">know</text><text x="28.055999999999997" y="1.67" class="h">you,</text><text x="33.065999999999995" y="1.67" class="h">won&#x27;t</text><text x="39.077999999999996" y="1.67" class="h">tell</text><text x="44.087999999999994" y="1.67" class="h">what</text><text x="49.098" y="1.67" class="h">I</text><text x="51.102" y="1.67" class="h">said</text></symbol><symbol id="7"><text x="0" y="1.67" class="h">→</text><text x="2.004" y="1.67" class="h">Cause</text><text x="8.016" y="1.67" class="h">two</text><text x="12.024" y="1.67" class="h">can</text><text x="16.032" y="1.67" class="h">keep</text><text x="21.041999999999998" y="1.67" class="h">a</text><text x="23.045999999999996" y="1.67" class="h">secret</text><text x="30.059999999999995" y="1.67" class="h">if</text><text x="33.065999999999995" y="1.67" class="h">one</text><text x="37.074" y="1.67" class="h">of</text><text x="40.08" y="1.67" class="h">them</text><text x="45.089999999999996" y="1.67" class="h">is</text><text x="48.096" y="1.67" class="h">dead</text></symbol><symbol id="a"><rect height="11" width="80" x="0" y="0" class="i"></rect></symbol></defs><rect height="21.71" width="80" class="a"></rect><g class="k"><svg x="0" y="0" width="800"><svg x="0"><use xlink:href="#a"></use></svg><svg x="80"><use xlink:href="#a"></use></svg><svg x="160"><use xlink:href="#a"></use><use xlink:href="#1" y="2.171"></use></svg><svg x="240"><use xlink:href="#a"></use><use xlink:href="#1" y="2.171"></use><use xlink:href="#2" y="4.342"></use></svg><svg x="320"><use xlink:href="#a"></use><use xlink:href="#1" y="2.171"></use><use xlink:href="#2" y="4.342"></use><use xlink:href="#3" y="6.513"></use></svg><svg x="400"><use xlink:href="#a"></use><use xlink:href="#1" y="2.171"></use><use xlink:href="#2" y="4.342"></use><use xlink:href="#3" y="6.513"></use><use xlink:href="#4" y="8.684"></use></svg><svg x="480"><use xlink:href="#a"></use><use xlink:href="#1" y="2.171"></use><use xlink:href="#2" y="4.342"></use><use xlink:href="#3" y="6.513"></use><use xlink:href="#4" y="8.684"></use><use xlink:href="#5" y="10.855"></use></svg><svg x="560"><use xlink:href="#a"></use><use xlink:href="#1" y="2.171"></use><use xlink:href="#2" y="4.342"></use><use xlink:href="#3" y="6.513"></use><use xlink:href="#4" y="8.684"></use><use xlink:href="#5" y="10.855"></use><use xlink:href="#6" y="13.026"></use></svg><svg x="640"><use xlink:href="#a"></use><use xlink:href="#1" y="2.171"></use><use xlink:href="#2" y="4.342"></use><use xlink:href="#3" y="6.513"></use><use xlink:href="#4" y="8.684"></use><use xlink:href="#5" y="10.855"></use><use xlink:href="#6" y="13.026"></use><use xlink:href="#7" y="15.197"></use></svg><svg x="720"><use xlink:href="#a"></use><use xlink:href="#1" y="2.171"></use><use xlink:href="#2" y="4.342"></use><use xlink:href="#3" y="6.513"></use><use xlink:href="#4" y="8.684"></use><use xlink:href="#5" y="10.855"></use><use xlink:href="#6" y="13.026"></use><use xlink:href="#7" y="15.197"></use></svg></svg></g></g></svg></svg>