<svg xmlns="http://www.w3.org/2000/svg" xmlns:xlink="http://www.w3.org/1999/xlink" width="840" height="190.26"><rect width="840" height="190.26" rx="5" ry="5" class="a"></rect><svg y="0%" x="0%"><circle cx="20" cy="20" r="6" class="b"></circle><circle cx="40" cy="20" r="6" class="c"></circle><circle cx="60" cy="20" r="6" class="d"></circle></svg><svg height="130.26" viewBox="0 0 80 13.026" width="800" x="15" xmlns="http://www.w3.org/2000/svg" xmlns:xlink="http://www.w3.org/1999/xlink" y="50"><style>.a{fill:rgb(40,45,53)}.b{fill:#ff5f58}.c{fill:#ffbd2e}.d{fill:#18c132}.e{font-family:'Fira Code',Monaco,Consolas,Menlo,'Bitstream Vera Sans Mono','Powerline Symbols',monospace}.f{fill:rgb(219,171,121);white-space:pre}.g{fill:rgb(185,192,203);white-space:pre}.h{fill:transparent}.j{animation-duration:5.680077314376831s;animation-iteration-count:infinite;animation-name:i;animation-timing-function:steps(1,end)}@keyframes i{0%{transform:translateX(-0px)}28.8%{transform:translateX(-80px)}100%{transform:translateX(-160px)}}</style><g font-family="&#x27;Fira Code&#x27;,Monaco,Consolas,Menlo,&#x27;Bitstream Vera Sans Mono&#x27;,&#x27;Powerline Symbols&#x27;,monospace" font-size="1.67" class="e"><defs><symbol id="1"><text x="0" y="1.67" class="f">!</text><text x="2.004" y="1.67" class="g">The</text><text x="6.012" y="1.67" class="g">truth</text><text x="12.024" y="1.67" class="g">won&#x27;t</text><text x="18.035999999999998" y="1.67" class="g">set</text><text x="22.043999999999997" y="1.67" class="g">you</text><text x="26.052" y="1.67" class="g">free,</text><text x="32.064" y="1.67" class="g">bitches.</text></symbol><symbol id="2"><text x="0" y="1.67" class="f">!</text><text x="2.004" y="1.67" class="g">I&#x27;m</text><text x="6.012" y="1.67" class="g">going</text><text x="12.024" y="1.67" class="g">to</text><text x="15.029999999999998" y="1.67" class="g">bury</text><text x="20.04" y="1.67" class="g">you</text><text x="24.048" y="1.67" class="g">with</text><text x="29.058" y="1.67" class="g">it.</text></symbol><symbol id="3"><text x="0" y="1.67" class="f">!</text><text x="2.004" y="1.67" class="g">Kisses</text></symbol><symbol id="4"><text x="0" y="1.67" class="f">!</text><text x="2.004" y="1.67" class="g">-A</text></symbol><symbol id="a"><rect height="7" width="80" x="0" y="0" class="h"></rect></symbol></defs><rect height="13.026" width="80" class="a"></rect><g class="j"><svg x="0" y="0" width="240"><svg x="0"><use xlink:href="#a"></use></svg><svg x="80"><use xlink:href="#a"></use><use xlink:href="#1" y="0"></use><use xlink:href="#2" y="2.171"></use><use xlink:href="#3" y="4.342"></use><use xlink:href="#4" y="6.513"></use></svg><svg x="160"><use xlink:href="#a"></use><use xlink:href="#1" y="0"></use><use xlink:href="#2" y="2.171"></use><use xlink:href="#3" y="4.342"></use><use xlink:href="#4" y="6.513"></use></svg></svg></g></g></svg></svg>